<svg id="tree__branch" width="602" height="212" viewBox="0 0 602 212" xmlns="http://www.w3.org/2000/svg">
  <path id="branch" d="M438 120L438.903 120.903M438.903 120.903L439 121L442 122L447 124L456 128L458 129L463 132L469 136L472 138L478 142L483 145L485 146L488 147L493 148L500 149H533L534 148.5H536C536.4 142.1 536 142.5 536.5 140.5C537 138.5 537.5 138 537.5 138H535L532 139L527 140L525.5 140.5H509L506 140L500 139L497 138L495 137L493 135L492 134L490 132L489 131L488 130L484 126L479 122L476 119L469 113L466 111L464 109L462 108L459 106L453 102L450 100L447 98L444 96L440 93L436 91L433 90L429 89H426V88L429 83L430 81L437 74L439 73L441 72L444 71L454.743 70H473L475 69.5L477 69L481 68L483 67L487 65L491 63L495 61L502 56L503 54.5L499 50H497L495 51L492 53L489 55L484 57L481 58L478 59H475L469 60L464 60.5L462 61L460 61.5L458.5 62L456.5 62.5L454.743 63L449.5 63.5L447.5 64L438.5 64.5L437 65H435.5L435 63.5H434.5L434 63H427L423 64L418 67L414.5 69L412 71L409 73C408 73.6667 405.4 75.4 403 77C400.6 78.6 398.667 79 398 79L393 80L388 81L383 82L378 83L368.5 85L362 86.5H343.5L336 85L320 75L310.5 70H273L259.5 69L251.5 68L245 67L241 66L230 61.5L225 61C218.667 61 205.4 61.1 203 61.5C200.6 61.9 192.667 61.6667 189 61.5L184 61H175.5L171 62C167 64.3333 158.2 69.2 155 70C151.8 70.8 148.333 70.3333 147 70L143 69L115.5 62L112 61L107 60L82.5 59L69 58L56 57L43 56L32 55L22 54C18 53.6667 8.2 53 1 53V102L14 100L25 99L38 98L41 97.5H53L63 97L75 97.5L80 98L87 99L92 100L97 102L101 105L105 108L107.5 110L110 111L115.202 113H142L148 114L150 114.5H166L168 114L171 113L174 112L178 109L183 105L188 102L190 101L195 99L199 98L202 97L203.5 96.5H212L216 97L223 98L227 99L232 100L236 101L245 102H249L254 101L259 100L264 99.5H273L277 100L282 101L286 102L289 103L293 105L295 106L301 109L306 112L308 113L311 114L314 115L320 116.5H329L331.5 115.5H335L339 115L346 114L352.5 113L359 112L366 111L367.5 110.5H373L378 110L382 109.5H400L405 110L408 110.5L412 111C413.5 111 417.2 111.1 420 111.1C422.8 111.5 425.167 112.167 426 112.5L428 113.5C428.833 114 431 115.3 433 116.5C435.5 118 438.305 119.805 438.903 120.903Z" />
  <path id="leaves__top" d="M437 65H435.5L435 64L434.5 63.5L434 63C433.667 62.6667 432.8 61.6 432 60C431 58 430 56 429 54.5C428 53 428 51 427 48C426 45 426 43 426 41C426 39 427 34.5 429 29C430.6 24.6 439 10.5 443 4C443.833 3 445.8 1 447 1C448.2 1 450.5 9 451.5 13C452 16.8333 452.8 25.4 452 29C451.2 33 451 33.3333 451 33L443 58C444.5 55.5 448 52 451 48C454 44 454 45 457 43C460 41 461 40 465 38C469 36 468 37 485 36C498.6 35.2 500.667 36.3333 500 37C500 37.3333 498.8 39 494 43C488 48 484 50 481 52C478 54 473 57 471 58C469.4 58.8 467 59.6667 466 60L464 60.5L460 61.5L458.5 62L456.5 62.5L454.794 63L449 64H447.5L438.5 64.5L437 65Z" />
  <path id="leaves__bottom__left" d="M414.5 110.5C413.333 110.667 409.2 113.2 402 122C393 133 389 135 388 143C387.2 149.4 387 161.667 387 167C389.833 166.667 396.6 165 401 161C405.4 157 410.833 148.667 413 145C414.333 140.833 416.9 132.1 416.5 130.5C416 128.5 417 138 423 146C429 154 428 156.5 437 161C444.2 164.6 445.333 166.5 445 167C445.5 166.667 446.5 165.6 446.5 164C446.5 162.4 446.5 150.333 446.5 144.5C446.667 142.333 446.6 136.8 445 132C443.4 127.2 439.833 121.333 439 120C436.5 118 434.5 116.667 433 116C431.167 114.833 427 112.3 425 111.5C422.5 110.5 420 110.5 414.5 110.5Z" />
  <path id="leaves__bottom__right" d="M547 130.5C542 133.5 542 133.5 540.5 134.5C540.5 134.5 536.5 137 536 143V149L535 157L531 158C528.667 159 523 161.6 519 164C515 166.4 512 169.667 511 171C510.667 171.333 509 173.8 505 181C501 188.2 500.333 193.667 500.5 195.5V210C500.667 210.333 501.3 211 502.5 211C503.7 211 519.333 205 527 202L538.5 195C540.5 193.167 545.2 187.5 548 179.5C550.8 171.5 549.167 161.167 548 157C548.667 159 551 165 555 173C560 183 563 184.5 566 187C568.4 189 576.667 191.167 580.5 192C585.5 192.5 595.6 193.4 596 193C596.4 192.6 596.167 189.5 596 188C595.667 187 594.6 183.7 593 178.5C591.4 173.3 587.667 168 586 166C584.833 164.833 581.7 161.6 578.5 158C575.3 154.4 564.167 147.167 559 144C557.167 143 553.7 141.1 554.5 141.5C555.3 141.9 559.833 143.333 562 144H564.5H574.5C575.667 143.833 578.6 143.6 581 144C583.4 144.4 590.667 140.833 594 139C595.333 138.167 598.2 136.4 599 136C599.8 135.6 600.667 134.5 601 134V133C601 131.8 589 126.5 583 124C580.833 123.667 575 123.1 569 123.5C567.4 123.9 565.667 124 565 124C564.333 124 555.6 126.2 554 127C553 127.333 551 128.1 547 130.5Z" />
</svg>