<svg xmlns="http://www.w3.org/2000/svg" width="1000" height="500" version="1.0" viewBox="0 0 662.000000 377.000000" preserveAspectRatio="xMidYMid meet">
  <g transform="translate(0.000000,377.000000) scale(0.100000,-0.100000)" fill="#ffecb4" stroke="#e57713" stroke-width="35" stroke-linecap="round" stroke-linejoin="round" stroke-opacity="1" filter="url(#f1)" stroke-dasharray="none" stroke-dashoffset="0">
    <defs>
      <filter id="f1" x="-50%" y="-50%" width="200%" height="200%">
        <feOffset result="offOut" in="SourceGraphic" dx="20" dy="-60" />
        <feBlend in="SourceGraphic" in2="offOut" mode="normal" />
        <feFlood flood-color="#75c8ae" result="flood" />
        <feComposite in="flood" in2="offOut" operator="in" result="comp" flood-opacity="0.5" />
        <feBlend in="SourceGraphic" in2="comp" mode="normal" />
      </filter>
      <filter id="t1" x="0" y="0" width="200%" height="200%">
        <feOffset result="offOut" in="SourceGraphic" dx="40" dy="-60" />
        <feBlend in="SourceGraphic" in2="offOut" mode="normal" />
        <feFlood flood-color="#75c8ae" result="flood" />
        <feComposite in="flood" in2="offOut" operator="in" result="comp" flood-opacity="0.5" />
        <feBlend in="SourceGraphic" in2="comp" mode="normal" />
      </filter>
    </defs>
    <!-- 'G'rant ready  -->
    <path d="M2377 3060 c-170 -30 -387 -133 -547 -258 -118 -93 -256 -255 -314 -369 -17 -35 -34 -54 -49 -57 -268 -51 -385 -86 -516 -153 -196 -101 -318 -243 -366 -425 -23 -89 -16 -248 15 -327 66 -169 196 -278 359 -301 156 -22 320 49 397 172 35 55 32 68 -18 68 -56 0 -120 33 -163 83 -77 89 -76 224 2 312 47 53 145 112 194 117 23 3 24 0 31 -82 11 -140 53 -235 143 -326 172 -173 446 -160 639 31 73 72 124 146 189 277 26 54 53 98 59 98 15 0 4 -173 -18 -300 -56 -326 -191 -544 -368 -595 -74 -21 -129 -9 -174 39 -55 57 -63 141 -20 215 24 42 14 51 -57 51 -73 0 -141 -28 -202 -84 -184 -168 -175 -478 21 -680 131 -135 335 -181 546 -122 211 58 338 164 431 361 76 163 102 356 88 655 -3 69 -5 211 -4 315 2 176 4 196 29 270 17 51 42 102 72 140 48 64 49 74 17 142 -15 31 -76 88 -120 112 -13 6 -23 17 -23 24 0 7 25 37 56 67 79 79 125 175 125 263 0 118 -60 206 -171 249 -62 24 -201 33 -283 18z m261 -156 c118 -76 -66 -277 -323 -353 -128 -37 -367 -83 -378 -72 -15 15 71 136 152 214 183 176 445 276 549 211z m-158 -564 c0 -24 -72 -151 -127 -225 -183 -247 -396 -326 -491 -182 -31 47 -44 164 -21 184 8 6 48 21 89 33 158 46 378 128 465 173 53 27 85 34 85 17z"/>
    <!-- g'R'ant ready -->
    <path d="M3319 2324 c-71 -22 -111 -72 -138 -175 -12 -46 -26 -94 -31 -107 -18 -41 -29 -14 -23 53 5 55 3 68 -13 86 -46 51 -139 66 -207 34 -63 -29 -70 -65 -102 -485 -9 -113 -18 -225 -20 -250 -11 -119 -7 -208 11 -239 39 -66 144 -89 233 -50 74 31 88 58 101 185 6 60 13 123 15 139 2 17 7 57 10 90 32 334 72 561 98 552 19 -6 20 -51 2 -176 -33 -224 -18 -317 61 -371 54 -36 153 -40 213 -8 60 32 70 49 43 76 -12 12 -24 33 -28 48 -6 24 -2 164 12 374 7 107 -5 150 -53 194 -41 38 -119 51 -184 30z"/>

    <!-- Gr'ant' ready  -->
    <path d="M5571 3386 c-24 -8 -54 -24 -66 -36 -34 -32 -63 -106 -75 -191 -18 -123 -14 -117 -78 -135 -123 -34 -122 -33 -122 -64 0 -16 4 -31 8 -34 5 -3 33 1 63 9 30 8 65 15 78 15 23 0 23 -1 17 -77 -4 -43 -11 -154 -16 -248 -13 -225 -58 -410 -100 -410 -12 0 -15 17 -14 95 0 52 4 145 8 205 10 132 -1 184 -48 231 -87 87 -250 56 -304 -59 -11 -23 -27 -77 -36 -119 -12 -54 -22 -78 -32 -78 -12 0 -14 14 -12 69 1 47 -2 75 -12 86 -53 64 -202 62 -249 -3 -21 -31 -26 -64 -51 -350 -11 -118 -48 -281 -72 -309 -14 -17 -33 -16 -48 2 -36 43 23 405 81 503 l21 36 -31 28 c-73 65 -189 59 -267 -16 -24 -23 -44 -50 -44 -58 0 -9 -6 -21 -14 -27 -12 -10 -23 -6 -57 16 -37 24 -52 28 -113 27 -89 -1 -150 -28 -209 -94 -87 -96 -145 -247 -167 -435 -29 -244 29 -452 142 -511 58 -30 153 -8 205 48 52 55 92 178 120 366 11 73 22 116 30 119 8 3 16 3 18 1 3 -3 6 -74 7 -160 3 -150 4 -156 31 -197 41 -62 80 -83 145 -78 39 3 61 11 90 34 34 28 75 78 85 106 3 9 9 9 23 -1 87 -59 177 -68 253 -26 60 32 77 62 85 149 44 457 80 688 115 744 12 19 37 7 43 -21 5 -27 -7 -220 -21 -333 -19 -150 -24 -300 -12 -337 6 -19 27 -50 46 -68 30 -29 43 -34 93 -38 46 -3 68 0 99 17 65 33 77 57 141 279 11 36 26 30 34 -15 22 -129 114 -193 238 -163 96 23 136 77 164 220 21 109 55 344 63 436 5 68 5 72 -17 79 -30 10 -34 1 -53 -113 -22 -129 -34 -169 -53 -176 -38 -14 -45 11 -43 148 2 193 37 524 59 566 5 9 55 27 118 44 114 29 132 38 132 67 0 36 -22 39 -114 13 -107 -30 -120 -24 -88 38 12 24 27 50 34 59 9 13 7 23 -8 50 -40 68 -155 103 -243 75z m-1521 -1063 c0 -52 -39 -232 -60 -280 -31 -70 -54 -53 -52 36 3 116 43 272 76 293 18 12 36 -13 36 -49z"/>

    <!-- grant 'r'eady  -->
    <path d="M3303 1158 c-26 -33 -75 -203 -87 -300 -6 -50 1 -61 46 -72 43 -10 55 2 78 77 25 81 61 156 98 205 33 43 48 28 28 -29 -25 -69 -21 -85 22 -102 20 -8 40 -13 44 -11 10 7 37 94 44 145 5 39 3 50 -15 68 -28 28 -70 27 -115 -4 -43 -29 -46 -30 -46 -10 0 15 -48 45 -73 45 -8 0 -19 -6 -24 -12z"/>

    <!-- grant r'eady' -->
    <path d="M4893 1375 c-23 -16 -61 -92 -88 -175 -23 -71 -27 -75 -63 -56 -36 18 -91 21 -125 5 -28 -13 -75 -82 -116 -172 -55 -119 -131 -177 -147 -111 -12 47 5 146 37 216 26 56 30 70 19 83 -19 23 -63 18 -90 -10 -21 -23 -24 -23 -51 -10 -15 8 -50 15 -78 15 -64 0 -96 -26 -145 -119 -108 -205 -307 -289 -310 -129 l-1 41 50 12 c61 14 88 30 109 66 47 80 -27 156 -126 129 -81 -23 -151 -153 -129 -238 22 -82 91 -132 181 -132 60 0 111 24 159 74 36 37 61 46 61 22 0 -25 49 -74 86 -86 46 -15 75 -7 114 31 l31 32 20 -22 c26 -28 60 -41 106 -41 30 0 44 8 82 47 31 33 46 43 49 33 10 -28 59 -68 96 -78 45 -13 79 -3 118 35 l27 26 31 -26 c57 -49 150 -45 200 8 l23 24 29 -24 c59 -50 112 -45 171 17 21 22 40 38 42 36 3 -2 -3 -33 -13 -69 l-17 -64 -89 -45 c-48 -25 -102 -57 -120 -72 -41 -33 -70 -91 -62 -124 9 -33 61 -58 121 -57 107 1 181 77 231 237 17 53 24 62 79 99 102 70 219 207 200 237 -14 23 -41 8 -64 -36 -23 -42 -143 -164 -162 -164 -13 0 -12 9 27 160 35 137 36 142 18 155 -11 8 -30 14 -44 12 -21 -2 -33 -19 -79 -111 -55 -112 -136 -213 -163 -204 -21 8 -13 102 16 193 23 73 24 81 9 97 -19 21 -56 23 -72 4 -6 -7 -21 -42 -32 -77 -45 -137 -109 -229 -160 -229 -37 0 -44 40 -25 154 19 121 53 226 97 304 25 45 28 57 17 67 -22 21 -63 26 -85 10z m-1043 -299 c-13 -39 -52 -76 -82 -76 -18 0 -18 2 -2 33 23 45 76 99 87 88 6 -6 4 -23 -3 -45z m418 10 c3 -34 -7 -74 -41 -169 -10 -30 -61 -77 -82 -77 -54 0 -17 190 51 258 44 44 68 40 72 -12z m477 24 c11 -34 -6 -154 -29 -200 -11 -25 -34 -52 -49 -60 -26 -14 -29 -14 -43 5 -34 44 13 207 73 255 32 25 40 25 48 0z m465 -420 c0 -18 -37 -85 -66 -119 -49 -59 -124 -82 -124 -38 0 34 43 87 106 130 56 37 84 46 84 27z"/>
  </g>
</svg>